<svg height="1024" node-id="1" sillyvg="true" template-height="1024" template-width="1024" version="1.1" viewBox="0 0 1024 1024" width="1024" xmlns="http://www.w3.org/2000/svg" xmlns:xlink="http://www.w3.org/1999/xlink"><defs node-id="58"><linearGradient gradientUnits="objectBoundingBox" id="linearGradient-1" node-id="5" spreadMethod="pad" x1="0.49614564" x2="0.5063883" y1="-0.16281228" y2="1.593112"><stop offset="0" stop-color="#ffffff" stop-opacity="0"></stop><stop offset="1" stop-color="#9db3ff"></stop></linearGradient><linearGradient gradientUnits="objectBoundingBox" id="linearGradient-2" node-id="8" spreadMethod="pad" x1="0.3926442" x2="1.3746601" y1="0.6557333" y2="1.6179096"><stop offset="0" stop-color="#5149f2"></stop><stop offset="1" stop-color="#f7f6ff"></stop></linearGradient><linearGradient gradientUnits="objectBoundingBox" id="linearGradient-3" node-id="11" spreadMethod="pad" x1="0.087399624" x2="0.86157054" y1="0.5644082" y2="1.0534523"><stop offset="0" stop-color="#ebeaff"></stop><stop offset="1" stop-color="#9893ff"></stop></linearGradient><linearGradient gradientUnits="objectBoundingBox" id="linearGradient-4" node-id="14" spreadMethod="pad" x1="0.5" x2="0.5" y1="-0.00000000000000003061617" y2="1"><stop offset="0" stop-color="#736cf6"></stop><stop offset="1" stop-color="#ada9ff"></stop></linearGradient><linearGradient gradientUnits="objectBoundingBox" id="linearGradient-5" node-id="17" spreadMethod="pad" x1="0.5" x2="0.5" y1="0" y2="1"><stop offset="0" stop-color="#cbc9ff"></stop><stop offset="1" stop-color="#8c86fa"></stop></linearGradient><linearGradient gradientUnits="objectBoundingBox" id="linearGradient-6" node-id="20" spreadMethod="pad" x1="0.5" x2="0.5" y1="0" y2="1"><stop offset="0" stop-color="#cbc9ff"></stop><stop offset="1" stop-color="#8c86fa"></stop></linearGradient><linearGradient gradientUnits="objectBoundingBox" id="linearGradient-7" node-id="23" spreadMethod="pad" x1="0.14683849" x2="0.7834091" y1="0.69612205" y2="-0.49440604"><stop offset="0" stop-color="#5149f2"></stop><stop offset="1" stop-color="#f7f6ff"></stop></linearGradient><linearGradient gradientUnits="objectBoundingBox" id="linearGradient-8" node-id="26" spreadMethod="pad" x1="0.14683849" x2="0.7834091" y1="0.69612205" y2="-0.49440604"><stop offset="0" stop-color="#5149f2"></stop><stop offset="1" stop-color="#f7f6ff"></stop></linearGradient><linearGradient gradientUnits="objectBoundingBox" id="linearGradient-9" node-id="29" spreadMethod="pad" x1="0.14683849" x2="0.7834091" y1="0.69612205" y2="-0.49440604"><stop offset="0" stop-color="#5149f2"></stop><stop offset="1" stop-color="#f7f6ff"></stop></linearGradient></defs><g node-id="153"><path d="M 518.00 819.00 L 531.02 818.72 L 543.82 817.95 L 556.43 816.67 L 568.84 814.90 L 581.08 812.64 L 593.29 809.88 L 605.26 806.67 L 617.00 803.02 L 628.52 798.94 L 639.83 794.40 L 651.00 789.42 L 661.89 784.04 L 672.51 778.27 L 682.88 772.11 L 693.00 765.54 L 702.88 758.59 L 712.44 751.29 L 721.70 743.66 L 730.66 735.67 L 739.32 727.32 L 747.67 718.66 L 755.66 709.70 L 763.29 700.44 L 770.59 690.88 L 777.54 681.00 L 784.11 670.88 L 790.27 660.51 L 796.04 649.89 L 801.42 639.00 L 806.40 627.83 L 810.93 616.52 L 815.02 605.00 L 818.67 593.26 L 821.88 581.29 L 824.64 569.08 L 826.90 556.84 L 828.67 544.43 L 829.95 531.82 L 830.72 519.02 L 831.00 506.00 L 830.72 492.98 L 829.95 480.18 L 828.67 467.57 L 826.90 455.16 L 824.64 442.92 L 821.88 430.71 L 818.67 418.74 L 815.02 407.00 L 810.94 395.48 L 806.40 384.17 L 801.42 373.00 L 796.04 362.11 L 790.27 351.49 L 784.11 341.12 L 777.54 331.00 L 770.59 321.12 L 763.29 311.56 L 755.66 302.30 L 747.67 293.34 L 739.32 284.68 L 730.66 276.33 L 721.70 268.34 L 712.44 260.71 L 702.88 253.41 L 693.00 246.46 L 682.88 239.89 L 672.51 233.73 L 661.89 227.96 L 651.00 222.58 L 639.83 217.60 L 628.52 213.07 L 617.00 208.98 L 605.26 205.33 L 593.29 202.12 L 581.08 199.36 L 568.84 197.10 L 556.43 195.33 L 543.82 194.05 L 531.02 193.28 L 518.00 193.00 L 504.98 193.28 L 492.18 194.05 L 479.57 195.33 L 467.16 197.10 L 454.92 199.36 L 442.71 202.12 L 430.74 205.33 L 419.00 208.98 L 407.48 213.07 L 396.17 217.60 L 385.00 222.58 L 374.11 227.96 L 363.49 233.73 L 353.12 239.89 L 343.00 246.46 L 333.12 253.41 L 323.56 260.71 L 314.30 268.34 L 305.34 276.33 L 296.68 284.68 L 288.33 293.34 L 280.34 302.30 L 272.71 311.56 L 265.41 321.12 L 258.46 331.00 L 251.89 341.12 L 245.73 351.49 L 239.96 362.11 L 234.58 373.00 L 229.60 384.17 L 225.07 395.48 L 220.98 407.00 L 217.33 418.74 L 214.12 430.71 L 211.36 442.92 L 209.10 455.16 L 207.33 467.57 L 206.05 480.18 L 205.28 492.98 L 205.00 506.00 L 205.28 519.02 L 206.05 531.82 L 207.33 544.43 L 209.10 556.84 L 211.36 569.08 L 214.12 581.29 L 217.33 593.26 L 220.98 605.00 L 225.07 616.52 L 229.60 627.83 L 234.58 639.00 L 239.96 649.89 L 245.73 660.51 L 251.89 670.88 L 258.46 681.00 L 265.41 690.88 L 272.71 700.44 L 280.34 709.70 L 288.33 718.66 L 296.68 727.32 L 305.34 735.67 L 314.30 743.66 L 323.56 751.29 L 333.12 758.59 L 343.00 765.54 L 353.12 772.11 L 363.49 778.27 L 374.11 784.04 L 385.00 789.42 L 396.17 794.40 L 407.48 798.94 L 419.00 803.02 L 430.74 806.67 L 442.71 809.88 L 454.92 812.64 L 467.16 814.90 L 479.57 816.67 L 492.18 817.95 L 504.98 818.72 L 518.00 819.00 Z" fill="url(#linearGradient-1)" fill-rule="nonzero" group-id="1" id="路径" node-id="34" stroke="none" target-height="626" target-width="626" target-x="205" target-y="193"></path><path d="M 810.85 427.00 L 804.15 427.00 L 785.51 427.00 L 757.09 427.00 L 721.06 427.00 L 679.61 427.00 L 634.90 427.00 L 589.10 427.00 L 544.39 427.00 L 502.94 427.00 L 466.91 427.00 L 438.50 427.00 L 419.85 427.00 L 413.15 427.00 L 409.47 427.34 L 406.10 428.26 L 402.98 429.75 L 400.15 431.75 L 397.75 434.15 L 395.75 436.98 L 394.26 440.10 L 393.34 443.47 L 393.00 447.14 L 393.00 452.77 L 393.00 468.21 L 393.00 491.27 L 393.00 519.78 L 393.00 551.57 L 393.00 584.44 L 393.00 616.22 L 393.00 644.73 L 393.00 667.79 L 393.00 683.23 L 393.00 688.86 L 393.34 692.53 L 394.26 695.90 L 395.75 699.02 L 397.75 701.85 L 400.15 704.25 L 402.98 706.25 L 406.10 707.74 L 409.47 708.66 L 413.15 709.00 L 419.85 709.00 L 438.50 709.00 L 466.91 709.00 L 502.94 709.00 L 544.39 709.00 L 589.10 709.00 L 634.90 709.00 L 679.61 709.00 L 721.06 709.00 L 757.09 709.00 L 785.51 709.00 L 804.15 709.00 L 810.85 709.00 L 814.53 708.66 L 817.90 707.74 L 821.02 706.25 L 823.85 704.25 L 826.25 701.85 L 828.25 699.02 L 829.74 695.90 L 830.66 692.53 L 831.00 688.86 L 831.00 683.23 L 831.00 667.79 L 831.00 644.73 L 831.00 616.22 L 831.00 584.44 L 831.00 551.57 L 831.00 519.78 L 831.00 491.27 L 831.00 468.21 L 831.00 452.77 L 831.00 447.14 L 830.66 443.47 L 829.74 440.10 L 828.25 436.98 L 826.25 434.15 L 823.85 431.75 L 821.02 429.75 L 817.90 428.26 L 814.53 427.34 L 810.85 427.00 Z" fill="url(#linearGradient-2)" fill-rule="nonzero" group-id="1" id="路径" node-id="35" stroke="none" target-height="282" target-width="438" target-x="393" target-y="427"></path><path d="M 401.73 397.53 L 401.46 389.43 L 400.68 381.40 L 399.36 373.44 L 397.53 365.57 L 395.18 357.85 L 392.32 350.26 L 388.97 342.87 L 385.16 335.76 L 380.88 328.90 L 376.17 322.34 L 371.04 316.10 L 365.48 310.18 L 359.54 304.64 L 353.28 299.52 L 346.70 294.81 L 339.82 290.55 L 332.69 286.75 L 325.28 283.40 L 317.66 280.54 L 309.92 278.20 L 302.03 276.37 L 294.04 275.06 L 285.99 274.27 L 277.85 274.00 L 269.72 274.27 L 261.67 275.06 L 253.68 276.37 L 245.79 278.21 L 238.05 280.55 L 230.44 283.41 L 223.03 286.76 L 215.89 290.56 L 209.02 294.82 L 202.43 299.53 L 196.18 304.64 L 190.24 310.19 L 184.68 316.11 L 179.55 322.35 L 174.84 328.91 L 170.57 335.76 L 166.76 342.88 L 163.40 350.27 L 160.54 357.86 L 158.20 365.58 L 156.36 373.44 L 155.05 381.40 L 154.26 389.43 L 154.00 397.53 L 154.27 405.64 L 155.06 413.66 L 156.38 421.62 L 158.21 429.48 L 160.56 437.19 L 163.42 444.78 L 166.78 452.16 L 170.59 459.27 L 174.87 466.13 L 179.58 472.68 L 184.71 478.92 L 190.27 484.84 L 196.20 490.38 L 202.46 495.49 L 209.04 500.19 L 215.91 504.45 L 223.04 508.25 L 230.45 511.60 L 238.06 514.46 L 245.80 516.80 L 253.69 518.63 L 261.67 519.94 L 269.72 520.73 L 277.85 521.00 L 282.72 521.00 L 296.08 521.00 L 316.04 521.00 L 340.71 521.00 L 368.21 521.00 L 396.65 521.00 L 424.15 521.00 L 448.82 521.00 L 468.77 521.00 L 482.13 521.00 L 487.00 521.00 L 484.59 519.03 L 478.38 513.97 L 469.89 507.04 L 460.64 499.49 L 452.15 492.56 L 445.94 487.49 L 443.54 485.52 L 437.20 479.95 L 431.34 473.97 L 425.93 467.57 L 421.01 460.80 L 416.60 453.68 L 412.71 446.21 L 409.38 438.48 L 406.65 430.57 L 404.50 422.48 L 402.97 414.25 L 402.04 405.95 L 401.73 397.53 Z" fill="url(#linearGradient-3)" fill-rule="nonzero" group-id="1" id="路径" node-id="36" stroke="none" target-height="247" target-width="333" target-x="154" target-y="274"></path><path d="M 240.00 405.00 L 240.28 409.68 L 241.06 414.08 L 242.32 418.23 L 244.05 422.21 L 246.16 425.80 L 248.64 429.04 L 251.50 431.94 L 254.62 434.36 L 258.02 436.33 L 261.65 437.79 L 265.46 438.68 L 269.50 439.00 L 273.54 438.68 L 277.35 437.79 L 280.98 436.33 L 284.38 434.36 L 287.50 431.94 L 290.36 429.04 L 292.84 425.80 L 294.95 422.21 L 296.68 418.23 L 297.94 414.08 L 298.72 409.68 L 299.00 405.00 L 295.73 405.00 L 287.30 405.00 L 275.78 405.00 L 263.22 405.00 L 251.70 405.00 L 243.27 405.00 L 240.00 405.00 Z" fill="#8a84fa" fill-rule="evenodd" group-id="1" id="路径" node-id="37" stroke="none" target-height="34" target-width="59" target-x="240" target-y="405"></path><path d="M 229.00 396.00 L 231.56 395.76 L 233.90 395.12 L 236.07 394.09 L 238.03 392.70 L 239.70 391.03 L 241.09 389.07 L 242.12 386.90 L 242.76 384.56 L 243.00 382.00 L 242.76 379.44 L 242.12 377.10 L 241.09 374.93 L 239.70 372.97 L 238.03 371.30 L 236.07 369.91 L 233.90 368.88 L 231.56 368.24 L 229.00 368.00 L 226.44 368.24 L 224.10 368.88 L 221.93 369.91 L 219.97 371.30 L 218.30 372.97 L 216.91 374.93 L 215.88 377.10 L 215.24 379.44 L 215.00 382.00 L 215.24 384.56 L 215.88 386.90 L 216.91 389.07 L 218.30 391.03 L 219.97 392.70 L 221.93 394.09 L 224.10 395.12 L 226.44 395.76 L 229.00 396.00 Z" fill="url(#linearGradient-4)" fill-rule="nonzero" group-id="1" id="路径" node-id="38" stroke="none" target-height="28" target-width="28" target-x="215" target-y="368"></path><path d="M 310.00 396.00 L 312.56 395.76 L 314.90 395.12 L 317.07 394.09 L 319.03 392.70 L 320.70 391.03 L 322.09 389.07 L 323.12 386.90 L 323.76 384.56 L 324.00 382.00 L 323.76 379.44 L 323.12 377.10 L 322.09 374.93 L 320.70 372.97 L 319.03 371.30 L 317.07 369.91 L 314.90 368.88 L 312.56 368.24 L 310.00 368.00 L 307.44 368.24 L 305.10 368.88 L 302.93 369.91 L 300.97 371.30 L 299.30 372.97 L 297.91 374.93 L 296.88 377.10 L 296.24 379.44 L 296.00 382.00 L 296.24 384.56 L 296.88 386.90 L 297.91 389.07 L 299.30 391.03 L 300.97 392.70 L 302.93 394.09 L 305.10 395.12 L 307.44 395.76 L 310.00 396.00 Z" fill="url(#linearGradient-4)" fill-rule="nonzero" group-id="1" id="路径" node-id="39" stroke="none" target-height="28" target-width="28" target-x="296" target-y="368"></path><path d="M 508.00 488.00 L 644.00 488.00 L 646.14 488.29 L 648.04 489.09 L 649.66 490.34 L 650.91 491.96 L 651.71 493.86 L 652.00 496.00 L 652.00 497.00 L 651.71 499.14 L 650.91 501.04 L 649.66 502.66 L 648.04 503.91 L 646.14 504.71 L 644.00 505.00 L 508.00 505.00 L 505.86 504.71 L 503.96 503.91 L 502.34 502.66 L 501.09 501.04 L 500.29 499.14 L 500.00 497.00 L 500.00 496.00 L 500.29 493.86 L 501.09 491.96 L 502.34 490.34 L 503.96 489.09 L 505.86 488.29 L 508.00 488.00 Z" fill="url(#linearGradient-5)" fill-rule="evenodd" group-id="1" id="矩形" node-id="40" stroke="none" target-height="17" target-width="152" target-x="500" target-y="488"></path><path d="M 508.00 559.00 L 724.00 559.00 L 726.14 559.29 L 728.04 560.09 L 729.66 561.34 L 730.91 562.96 L 731.71 564.86 L 732.00 567.00 L 732.00 568.00 L 731.71 570.14 L 730.91 572.04 L 729.66 573.66 L 728.04 574.91 L 726.14 575.71 L 724.00 576.00 L 508.00 576.00 L 505.86 575.71 L 503.96 574.91 L 502.34 573.66 L 501.09 572.04 L 500.29 570.14 L 500.00 568.00 L 500.00 567.00 L 500.29 564.86 L 501.09 562.96 L 502.34 561.34 L 503.96 560.09 L 505.86 559.29 L 508.00 559.00 Z" fill="url(#linearGradient-6)" fill-rule="evenodd" group-id="1" id="矩形备份" node-id="41" stroke="none" target-height="17" target-width="232" target-x="500" target-y="559"></path><path d="M 508.00 630.00 L 724.00 630.00 L 726.14 630.29 L 728.04 631.09 L 729.66 632.34 L 730.91 633.96 L 731.71 635.86 L 732.00 638.00 L 732.00 639.00 L 731.71 641.14 L 730.91 643.04 L 729.66 644.66 L 728.04 645.91 L 726.14 646.71 L 724.00 647.00 L 508.00 647.00 L 505.86 646.71 L 503.96 645.91 L 502.34 644.66 L 501.09 643.04 L 500.29 641.14 L 500.00 639.00 L 500.00 638.00 L 500.29 635.86 L 501.09 633.96 L 502.34 632.34 L 503.96 631.09 L 505.86 630.29 L 508.00 630.00 Z" fill="url(#linearGradient-6)" fill-rule="evenodd" group-id="1" id="矩形备份-2" node-id="42" stroke="none" target-height="17" target-width="232" target-x="500" target-y="630"></path><g node-id="154"><path d="M 287.63 651.43 L 287.10 650.03 L 286.38 648.94 L 285.47 648.11 L 283.81 647.28 L 282.00 647.00 L 280.19 647.28 L 278.53 648.11 L 277.62 648.94 L 276.90 650.03 L 276.37 651.43 L 275.87 653.50 L 274.68 658.43 L 273.26 664.31 L 272.07 669.24 L 271.58 671.31 L 270.99 672.80 L 270.04 674.04 L 268.80 674.99 L 267.31 675.58 L 265.24 676.07 L 260.31 677.26 L 254.43 678.68 L 249.50 679.87 L 247.43 680.37 L 246.03 680.90 L 244.94 681.62 L 244.11 682.53 L 243.28 684.19 L 243.00 686.00 L 243.28 687.81 L 244.11 689.47 L 244.94 690.38 L 246.03 691.10 L 247.43 691.63 L 249.50 692.13 L 254.43 693.32 L 260.31 694.74 L 265.24 695.93 L 267.31 696.42 L 268.80 697.01 L 270.04 697.96 L 270.99 699.20 L 271.58 700.69 L 272.07 702.76 L 273.26 707.69 L 274.68 713.57 L 275.87 718.50 L 276.37 720.57 L 276.90 721.97 L 277.62 723.06 L 278.53 723.89 L 280.19 724.72 L 282.00 725.00 L 283.81 724.72 L 285.47 723.89 L 286.38 723.06 L 287.10 721.97 L 287.63 720.57 L 288.13 718.50 L 289.32 713.57 L 290.74 707.69 L 291.93 702.76 L 292.42 700.69 L 293.01 699.20 L 293.96 697.96 L 295.20 697.01 L 296.69 696.42 L 298.76 695.93 L 303.69 694.74 L 309.57 693.32 L 314.50 692.13 L 316.57 691.63 L 317.97 691.10 L 319.06 690.38 L 319.89 689.47 L 320.72 687.81 L 321.00 686.00 L 320.72 684.19 L 319.89 682.53 L 319.06 681.62 L 317.97 680.90 L 316.57 680.37 L 314.50 679.87 L 309.57 678.68 L 303.69 677.26 L 298.76 676.07 L 296.69 675.58 L 295.20 674.99 L 293.96 674.04 L 293.01 672.80 L 292.42 671.31 L 291.93 669.24 L 290.74 664.31 L 289.32 658.43 L 288.13 653.50 L 287.63 651.43 Z" fill="url(#linearGradient-7)" fill-rule="nonzero" group-id="1,2" node-id="127" stroke="none" target-height="78" target-width="78" target-x="243" target-y="647"></path></g><g node-id="155"><path d="M 505.76 775.35 L 505.17 773.98 L 504.36 773.02 L 503.31 772.37 L 502.10 772.04 L 500.90 772.04 L 499.69 772.37 L 498.64 773.02 L 497.83 773.98 L 497.24 775.35 L 496.87 776.91 L 495.97 780.64 L 494.89 785.09 L 493.99 788.82 L 493.61 790.39 L 493.17 791.51 L 492.45 792.45 L 491.51 793.17 L 490.39 793.61 L 488.82 793.99 L 485.09 794.89 L 480.64 795.97 L 476.91 796.87 L 475.35 797.24 L 473.98 797.83 L 473.02 798.64 L 472.37 799.69 L 472.04 800.90 L 472.04 802.10 L 472.37 803.31 L 473.02 804.36 L 473.98 805.17 L 475.35 805.76 L 476.91 806.13 L 480.64 807.03 L 485.09 808.11 L 488.82 809.01 L 490.39 809.39 L 491.51 809.83 L 492.45 810.55 L 493.17 811.49 L 493.61 812.61 L 493.99 814.18 L 494.89 817.91 L 495.97 822.36 L 496.87 826.09 L 497.24 827.65 L 497.83 829.02 L 498.64 829.98 L 499.69 830.63 L 500.90 830.96 L 502.10 830.96 L 503.31 830.63 L 504.36 829.98 L 505.17 829.02 L 505.76 827.65 L 506.13 826.09 L 507.03 822.36 L 508.11 817.91 L 509.01 814.18 L 509.39 812.61 L 509.83 811.49 L 510.55 810.55 L 511.49 809.83 L 512.61 809.39 L 514.18 809.01 L 517.91 808.11 L 522.36 807.03 L 526.09 806.13 L 527.65 805.76 L 529.02 805.17 L 529.98 804.36 L 530.63 803.31 L 530.96 802.10 L 530.96 800.90 L 530.63 799.69 L 529.98 798.64 L 529.02 797.83 L 527.65 797.24 L 526.09 796.87 L 522.36 795.97 L 517.91 794.89 L 514.18 793.99 L 512.61 793.61 L 511.49 793.17 L 510.55 792.45 L 509.83 791.51 L 509.39 790.39 L 509.01 788.82 L 508.11 785.09 L 507.03 780.64 L 506.13 776.91 L 505.76 775.35 Z" fill="url(#linearGradient-7)" fill-rule="nonzero" group-id="1,3" node-id="131" stroke="none" target-height="58.920044" target-width="58.920013" target-x="472.04" target-y="772.04"></path></g><g node-id="156"><path d="M 624.08 235.76 L 623.29 233.63 L 622.19 231.96 L 620.79 230.69 L 619.13 229.75 L 617.38 229.19 L 615.50 229.00 L 613.62 229.19 L 611.87 229.75 L 610.21 230.69 L 608.81 231.96 L 607.71 233.63 L 606.92 235.76 L 606.37 238.00 L 605.02 243.62 L 603.26 250.92 L 601.49 258.22 L 600.14 263.84 L 599.60 266.08 L 599.06 267.65 L 598.28 269.03 L 597.26 270.26 L 596.03 271.28 L 594.65 272.06 L 593.08 272.60 L 590.84 273.14 L 585.22 274.49 L 577.92 276.26 L 570.62 278.02 L 565.00 279.37 L 562.76 279.92 L 560.63 280.71 L 558.97 281.81 L 557.69 283.21 L 556.75 284.87 L 556.19 286.62 L 556.00 288.50 L 556.19 290.38 L 556.75 292.13 L 557.69 293.79 L 558.97 295.19 L 560.63 296.29 L 562.76 297.08 L 565.00 297.63 L 570.62 298.98 L 577.92 300.74 L 585.22 302.51 L 590.84 303.86 L 593.08 304.40 L 594.65 304.94 L 596.03 305.72 L 597.26 306.74 L 598.28 307.97 L 599.06 309.35 L 599.60 310.92 L 600.14 313.16 L 601.49 318.78 L 603.26 326.08 L 605.02 333.38 L 606.37 339.00 L 606.92 341.24 L 607.71 343.37 L 608.81 345.03 L 610.21 346.31 L 611.87 347.25 L 613.62 347.81 L 615.50 348.00 L 617.38 347.81 L 619.13 347.25 L 620.79 346.31 L 622.19 345.03 L 623.29 343.37 L 624.08 341.24 L 624.63 339.00 L 625.98 333.38 L 627.74 326.08 L 629.51 318.78 L 630.86 313.16 L 631.40 310.92 L 631.94 309.35 L 632.72 307.97 L 633.74 306.74 L 634.97 305.72 L 636.35 304.94 L 637.92 304.40 L 640.16 303.86 L 645.78 302.51 L 653.08 300.74 L 660.38 298.98 L 666.00 297.63 L 668.24 297.08 L 670.37 296.29 L 672.04 295.19 L 673.31 293.79 L 674.25 292.13 L 674.81 290.38 L 675.00 288.50 L 674.81 286.62 L 674.25 284.87 L 673.31 283.21 L 672.04 281.81 L 670.37 280.71 L 668.24 279.92 L 666.00 279.37 L 660.38 278.02 L 653.08 276.26 L 645.78 274.49 L 640.16 273.14 L 637.92 272.60 L 636.35 272.06 L 634.97 271.28 L 633.74 270.26 L 632.72 269.03 L 631.94 267.65 L 631.40 266.08 L 630.86 263.84 L 629.51 258.22 L 627.74 250.92 L 625.98 243.62 L 624.63 238.00 L 624.08 235.76 Z" fill="url(#linearGradient-7)" fill-rule="nonzero" group-id="1,4" node-id="135" stroke="none" target-height="119" target-width="119" target-x="556" target-y="229"></path></g><g node-id="157"><path d="M 445.00 228.50 L 445.23 230.96 L 445.84 233.22 L 446.84 235.31 L 448.18 237.21 L 449.79 238.82 L 451.69 240.16 L 453.78 241.16 L 456.04 241.77 L 458.50 242.00 L 460.96 241.77 L 463.22 241.16 L 465.31 240.16 L 467.21 238.82 L 468.82 237.21 L 470.16 235.31 L 471.16 233.22 L 471.77 230.96 L 472.00 228.50 L 471.77 226.04 L 471.16 223.78 L 470.16 221.69 L 468.82 219.79 L 467.21 218.18 L 465.31 216.84 L 463.22 215.84 L 460.96 215.23 L 458.50 215.00 L 456.04 215.23 L 453.78 215.84 L 451.69 216.84 L 449.79 218.18 L 448.18 219.79 L 446.84 221.69 L 445.84 223.78 L 445.23 226.04 L 445.00 228.50 Z" fill="none" group-id="1,5" node-id="139" stroke="url(#linearGradient-7)" stroke-linecap="butt" stroke-width="2.6262975" target-height="27" target-width="27" target-x="445" target-y="215"></path></g><g node-id="158"><path d="M 865.27 376.81 L 866.48 375.53 L 867.11 374.04 L 867.21 372.44 L 866.77 370.89 L 865.85 369.57 L 864.39 368.58 L 862.03 367.53 L 856.40 365.03 L 849.68 362.06 L 844.05 359.56 L 841.69 358.51 L 839.97 358.10 L 838.37 358.30 L 836.93 359.02 L 835.81 360.17 L 835.13 361.63 L 835.00 363.39 L 835.27 365.96 L 835.93 372.08 L 836.71 379.39 L 837.36 385.52 L 837.64 388.09 L 838.14 389.78 L 839.11 391.06 L 840.45 391.95 L 842.01 392.35 L 843.62 392.20 L 845.21 391.44 L 847.29 389.92 L 852.27 386.29 L 858.21 381.96 L 863.18 378.33 L 865.27 376.81 Z" fill="url(#linearGradient-8)" fill-rule="nonzero" group-id="1,6" node-id="143" stroke="none" target-height="34.25" target-width="32.210022" target-x="835" target-y="358.1"></path></g><g node-id="159"><path d="M 710.10 757.68 L 708.34 757.56 L 706.80 758.03 L 705.50 758.98 L 704.59 760.30 L 704.16 761.86 L 704.33 763.61 L 705.03 766.10 L 706.70 772.03 L 708.70 779.10 L 710.37 785.03 L 711.08 787.51 L 711.85 789.09 L 713.03 790.20 L 714.50 790.85 L 716.10 790.98 L 717.66 790.57 L 719.10 789.55 L 720.90 787.70 L 725.20 783.28 L 730.33 778.02 L 734.62 773.60 L 736.42 771.75 L 737.41 770.29 L 737.77 768.72 L 737.60 767.12 L 736.91 765.67 L 735.78 764.52 L 734.17 763.79 L 731.67 763.15 L 725.70 761.64 L 718.58 759.83 L 712.61 758.32 L 710.10 757.68 Z" fill="url(#linearGradient-9)" fill-rule="nonzero" group-id="1,7" node-id="147" stroke="none" target-height="33.419983" target-width="33.610046" target-x="704.16" target-y="757.56"></path></g><path d="M 237.00 788.50 L 237.23 790.96 L 237.84 793.22 L 238.84 795.31 L 240.18 797.21 L 241.79 798.82 L 243.69 800.16 L 245.78 801.16 L 248.04 801.77 L 250.50 802.00 L 252.96 801.77 L 255.22 801.16 L 257.31 800.16 L 259.21 798.82 L 260.82 797.21 L 262.16 795.31 L 263.16 793.22 L 263.77 790.96 L 264.00 788.50 L 263.77 786.04 L 263.16 783.78 L 262.16 781.69 L 260.82 779.79 L 259.21 778.18 L 257.31 776.84 L 255.22 775.84 L 252.96 775.23 L 250.50 775.00 L 248.04 775.23 L 245.78 775.84 L 243.69 776.84 L 241.79 778.18 L 240.18 779.79 L 238.84 781.69 L 237.84 783.78 L 237.23 786.04 L 237.00 788.50 Z" fill="none" group-id="1,8" node-id="151" stroke="url(#linearGradient-7)" stroke-linecap="butt" stroke-width="2.6262975" target-height="27" target-width="27" target-x="237" target-y="775"></path></g></svg>