<svg t="1693961748582" class="icon" viewBox="0 0 1024 1024" version="1.1" xmlns="http://www.w3.org/2000/svg" p-id="9468" width="200" height="200"><path d="M1020.19072 401.82272c-8.8576-25.56928-31.616-44.288-59.00288-48.35328L694.74816 313.856l-115.80416-240.44544C566.74816 48.15872 540.672 32 512 32s-54.75328 16.15872-66.944 41.40544L329.24672 313.856l-266.46016 39.61856c-27.36128 4.06016-50.11456 22.784-58.94656 48.35328C-4.96128 427.45344 1.69472 455.68 21.02272 474.94656l195.26144 194.944-45.27616 270.42816c-4.608 27.22816 7.19872 54.55872 30.336 70.49728A75.25376 75.25376 0 0 0 243.93216 1024c12.288 0 24.61184-3.01056 35.77856-8.99072L512 889.94816l232.32 125.06112a75.81184 75.81184 0 0 0 35.74272 8.99072c14.94528 0 29.88544-4.44928 42.624-13.184 23.13728-15.93344 34.88256-43.264 30.30016-70.49728l-45.312-270.42816 195.328-194.944c19.3024-19.29728 25.92768-47.52384 17.18784-73.12384z" fill="#E12E40" p-id="9469"></path></svg>