<svg t="1692935086475" class="icon" viewBox="0 0 1166 1024" version="1.1" xmlns="http://www.w3.org/2000/svg" p-id="3197" width="200" height="200"><path d="M817.87336 467.757949c0 29.027152-17.419055 52.247493-46.446208 52.247492-29.025771 0-46.446208-23.22034-46.446207-52.247492v-52.246111c0-29.027152 17.420437-52.254402 46.446207-52.254402 23.22034 0 46.446208 23.22725 46.446208 52.254402v52.246111zM713.372848 676.752065c-17.416291 29.027152-63.863881 75.471978-133.527666 75.471978-69.665166 0-116.109992-52.247493-133.527665-81.274645-11.609479-23.225868-5.799903-52.25302 17.417673-69.662402 17.417673-11.610861 52.254402-5.808194 63.8625 17.409382 0 0 23.22034 29.027152 52.247492 29.027152 29.028534 0 52.25302-34.827055 52.25302-34.827055 17.410764-23.22034 46.437916-29.028534 69.665166-5.809576 17.417673 17.417673 23.218958 46.444826 11.610861 69.665166zM440.518996 473.567525c0 29.025771-17.417673 52.246111-46.446208 52.246111-23.218958 0-46.446208-23.22034-46.446208-52.246111v-52.254402c0-29.028534 17.419055-52.246111 46.446208-52.246111 23.218958 0 46.446208 23.217576 46.446208 46.446208v58.054305zM583.895579-0.001382C379.184022 0 199.534899 90.286121 95.867682 226.454629 42.556113 283.797247 7.582575 353.690429 2.273252 435.972491-21.400356 713.823352 147.270823 825.164351 167.152453 1023.028513c41.055352-4.477409 247.672572-45.905879 377.961026-32.177922 29.805171 2.216594 59.201296 1.033673 88.160734-2.132297 298.040659-21.392065 532.227109-233.889339 532.22711-493.302672C1165.501323 221.805862 905.102683 0 583.894197 0z" fill="#FE5955" p-id="3198"></path></svg>