<svg t="1689667094532" class="icon" viewBox="0 0 1024 1024" version="1.1" xmlns="http://www.w3.org/2000/svg" p-id="107884" width="200" height="200"><path d="M512 512m-512 0a512 512 0 1 0 1024 0 512 512 0 1 0-1024 0Z" fill="#FBD971" p-id="107885"></path><path d="M719.238095 353.52381m-85.333333 0a85.333333 85.333333 0 1 0 170.666667 0 85.333333 85.333333 0 1 0-170.666667 0Z" fill="#AF8066" p-id="107886"></path><path d="M512 877.714286c-161.328762 0-292.571429-131.242667-292.571429-292.571429a24.380952 24.380952 0 1 1 48.761905 0c0 134.436571 109.372952 243.809524 243.809524 243.809524s243.809524-109.372952 243.809524-243.809524a24.380952 24.380952 0 1 1 48.761905 0c0 161.328762-131.242667 292.571429-292.571429 292.571429z" fill="#F0C419" p-id="107887"></path><path d="M365.714286 365.714286H195.047619a24.380952 24.380952 0 1 1 0-48.761905h170.666667a24.380952 24.380952 0 1 1 0 48.761905z" fill="#F29C1F" p-id="107888"></path></svg>