<svg t="1689668562661" class="icon" viewBox="0 0 1024 1024" version="1.1" xmlns="http://www.w3.org/2000/svg" p-id="123070" width="200" height="200"><path d="M512 512m-512 0a512 512 0 1 0 1024 0 512 512 0 1 0-1024 0Z" fill="#FBD971" p-id="123071"></path><path d="M292.571429 414.47619m-146.285715 0a146.285714 146.285714 0 1 0 292.571429 0 146.285714 146.285714 0 1 0-292.571429 0Z" fill="#FFFFFF" p-id="123072"></path><path d="M731.428571 414.47619m-146.285714 0a146.285714 146.285714 0 1 0 292.571429 0 146.285714 146.285714 0 1 0-292.571429 0Z" fill="#FFFFFF" p-id="123073"></path><path d="M512 755.809524m-121.904762 0a121.904762 121.904762 0 1 0 243.809524 0 121.904762 121.904762 0 1 0-243.809524 0Z" fill="#C03A2B" p-id="123074"></path><path d="M448.146286 292.571429a24.380952 24.380952 0 0 1-16.359619-6.290286l-155.574857-140.678095a24.380952 24.380952 0 0 1 32.719238-36.156953l155.574857 140.678095c9.97181 9.045333 10.752 24.454095 1.731047 34.450286-4.827429 5.290667-11.459048 7.996952-18.090666 7.996953zM575.853714 292.571429a24.380952 24.380952 0 0 1-16.359619-42.471619l155.574857-140.678096a24.454095 24.454095 0 0 1 34.450286 1.731048c9.020952 9.99619 8.240762 25.404952-1.731048 34.450286l-155.574857 140.678095a24.30781 24.30781 0 0 1-16.359619 6.290286z" fill="#F0C419" p-id="123075"></path><path d="M292.571429 414.47619m-73.142858 0a73.142857 73.142857 0 1 0 146.285715 0 73.142857 73.142857 0 1 0-146.285715 0Z" fill="#AF8066" p-id="123076"></path><path d="M731.428571 414.47619m-73.142857 0a73.142857 73.142857 0 1 0 146.285715 0 73.142857 73.142857 0 1 0-146.285715 0Z" fill="#AF8066" p-id="123077"></path></svg>