<?xml version="1.0" standalone="no"?><!DOCTYPE svg PUBLIC "-//W3C//DTD SVG 1.1//EN" "http://www.w3.org/Graphics/SVG/1.1/DTD/svg11.dtd"><svg t="1692063169608" class="icon" viewBox="0 0 1024 1024" version="1.1" xmlns="http://www.w3.org/2000/svg" p-id="5150" xmlns:xlink="http://www.w3.org/1999/xlink" width="200" height="200"><path d="M571.849487 391.408941H511.614193c-78.305882 0-150.588235 24.094118-210.823529 66.258824l-66.258824 54.211764c-6.023529 6.023529-12.047059 6.023529-12.047059 0-6.023529 0-12.047059-6.023529-12.047059-12.047058v-12.047059c0-162.635294 150.588235-289.129412 337.317647-289.129412H571.849487v-138.541176c0-12.047059 12.047059-30.117647 30.117647-36.141177 18.070588-6.023529 36.141176 0 48.188235 6.023529l271.058824 234.917648c6.023529 12.047059 12.047059 18.070588 12.047059 30.117647s-6.023529 18.070588-12.047059 30.117647l-271.058824 234.917647c-12.047059 6.023529-36.141176 12.047059-48.188235 6.023529-18.070588-6.023529-30.117647-24.094118-30.117647-36.141176v-138.541177z m361.411765 174.682353c36.141176 0 66.258824 24.094118 60.235294 60.235294v180.705883c0 48.188235 0 114.447059-36.141177 144.564705-42.164706 36.141176-114.447059 36.141176-180.705882 36.141177H246.578899c-60.235294 0-138.541176 0-174.682353-36.141177-42.164706-30.117647-42.164706-96.376471-42.164706-144.564705v-180.705883c0-36.141176 30.117647-60.235294 66.258824-60.235294s66.258824 24.094118 66.258823 60.235294v180.705883c0 12.047059 0 36.141176 12.047059 48.188235 12.047059 12.047059 42.164706 12.047059 72.282353 12.047059h536.094117c24.094118 0 54.211765 0 72.282353-12.047059 18.070588-12.047059 12.047059-36.141176 12.047059-48.188235v-180.705883c0-36.141176 30.117647-60.235294 66.258824-60.235294z" fill="#3364E4" p-id="5151"></path></svg>